<mxfile host="Electron" modified="2023-10-14T14:36:44.254Z" agent="Mozilla/5.0 (Windows NT 10.0; Win64; x64) AppleWebKit/537.36 (KHTML, like Gecko) draw.io/21.6.8 Chrome/114.0.5735.289 Electron/25.5.0 Safari/537.36" etag="lEXzTDqYz17pwwQirYsR" version="21.6.8" type="device">
  <diagram id="C5RBs43oDa-KdzZeNtuy" name="Page-1">
    <mxGraphModel dx="2187" dy="2053" grid="1" gridSize="10" guides="1" tooltips="1" connect="1" arrows="1" fold="1" page="1" pageScale="1" pageWidth="827" pageHeight="1169" math="0" shadow="0">
      <root>
        <mxCell id="WIyWlLk6GJQsqaUBKTNV-0" />
        <mxCell id="WIyWlLk6GJQsqaUBKTNV-1" parent="WIyWlLk6GJQsqaUBKTNV-0" />
        <mxCell id="e2St2DHysB3YV1EGZhMh-60" value="Представление" style="shape=module;align=left;spacingLeft=20;align=center;verticalAlign=top;whiteSpace=wrap;html=1;" vertex="1" parent="WIyWlLk6GJQsqaUBKTNV-1">
          <mxGeometry x="-390" y="-320" width="1200" height="360" as="geometry" />
        </mxCell>
        <mxCell id="e2St2DHysB3YV1EGZhMh-37" value="Сервисы" style="shape=module;align=left;spacingLeft=20;align=center;verticalAlign=top;whiteSpace=wrap;html=1;" vertex="1" parent="WIyWlLk6GJQsqaUBKTNV-1">
          <mxGeometry x="-390" y="70" width="1200" height="160" as="geometry" />
        </mxCell>
        <mxCell id="e2St2DHysB3YV1EGZhMh-20" value="Хранилище данных" style="shape=module;align=left;spacingLeft=20;align=center;verticalAlign=top;whiteSpace=wrap;html=1;" vertex="1" parent="WIyWlLk6GJQsqaUBKTNV-1">
          <mxGeometry x="-390" y="240" width="1200" height="330" as="geometry" />
        </mxCell>
        <mxCell id="e2St2DHysB3YV1EGZhMh-0" value="&lt;p style=&quot;margin:0px;margin-top:4px;text-align:center;&quot;&gt;&lt;b&gt;Доктор&lt;/b&gt;&lt;/p&gt;&lt;hr size=&quot;1&quot;&gt;&lt;div style=&quot;height:2px;&quot;&gt;&lt;/div&gt;" style="verticalAlign=top;align=left;overflow=fill;fontSize=12;fontFamily=Helvetica;html=1;whiteSpace=wrap;" vertex="1" parent="WIyWlLk6GJQsqaUBKTNV-1">
          <mxGeometry x="80" y="290" width="140" height="60" as="geometry" />
        </mxCell>
        <mxCell id="e2St2DHysB3YV1EGZhMh-1" value="&lt;p style=&quot;margin:0px;margin-top:4px;text-align:center;&quot;&gt;&lt;b&gt;Клиент&lt;/b&gt;&lt;/p&gt;&lt;hr size=&quot;1&quot;&gt;&lt;div style=&quot;height:2px;&quot;&gt;&lt;/div&gt;" style="verticalAlign=top;align=left;overflow=fill;fontSize=12;fontFamily=Helvetica;html=1;whiteSpace=wrap;" vertex="1" parent="WIyWlLk6GJQsqaUBKTNV-1">
          <mxGeometry x="-350" y="290" width="140" height="60" as="geometry" />
        </mxCell>
        <mxCell id="e2St2DHysB3YV1EGZhMh-2" value="&lt;p style=&quot;margin:0px;margin-top:4px;text-align:center;&quot;&gt;&lt;b&gt;Специализация&lt;/b&gt;&lt;/p&gt;&lt;hr size=&quot;1&quot;&gt;&lt;div style=&quot;height:2px;&quot;&gt;&lt;/div&gt;" style="verticalAlign=top;align=left;overflow=fill;fontSize=12;fontFamily=Helvetica;html=1;whiteSpace=wrap;" vertex="1" parent="WIyWlLk6GJQsqaUBKTNV-1">
          <mxGeometry x="610" y="290" width="140" height="60" as="geometry" />
        </mxCell>
        <mxCell id="e2St2DHysB3YV1EGZhMh-3" value="&lt;p style=&quot;margin:0px;margin-top:4px;text-align:center;&quot;&gt;&lt;b&gt;Клиника&lt;/b&gt;&lt;/p&gt;&lt;hr size=&quot;1&quot;&gt;&lt;div style=&quot;height:2px;&quot;&gt;&lt;/div&gt;" style="verticalAlign=top;align=left;overflow=fill;fontSize=12;fontFamily=Helvetica;html=1;whiteSpace=wrap;" vertex="1" parent="WIyWlLk6GJQsqaUBKTNV-1">
          <mxGeometry x="220" y="480" width="140" height="60" as="geometry" />
        </mxCell>
        <mxCell id="e2St2DHysB3YV1EGZhMh-15" style="edgeStyle=none;rounded=0;orthogonalLoop=1;jettySize=auto;html=1;exitX=0;exitY=0.25;exitDx=0;exitDy=0;entryX=1;entryY=0.25;entryDx=0;entryDy=0;" edge="1" parent="WIyWlLk6GJQsqaUBKTNV-1" source="e2St2DHysB3YV1EGZhMh-6" target="e2St2DHysB3YV1EGZhMh-1">
          <mxGeometry relative="1" as="geometry" />
        </mxCell>
        <mxCell id="e2St2DHysB3YV1EGZhMh-16" style="edgeStyle=none;rounded=0;orthogonalLoop=1;jettySize=auto;html=1;exitX=1;exitY=0.75;exitDx=0;exitDy=0;entryX=0.25;entryY=0;entryDx=0;entryDy=0;" edge="1" parent="WIyWlLk6GJQsqaUBKTNV-1" source="e2St2DHysB3YV1EGZhMh-6" target="e2St2DHysB3YV1EGZhMh-10">
          <mxGeometry relative="1" as="geometry" />
        </mxCell>
        <mxCell id="e2St2DHysB3YV1EGZhMh-17" style="edgeStyle=none;rounded=0;orthogonalLoop=1;jettySize=auto;html=1;exitX=1;exitY=0.5;exitDx=0;exitDy=0;entryX=0;entryY=0.5;entryDx=0;entryDy=0;" edge="1" parent="WIyWlLk6GJQsqaUBKTNV-1" source="e2St2DHysB3YV1EGZhMh-6" target="e2St2DHysB3YV1EGZhMh-0">
          <mxGeometry relative="1" as="geometry" />
        </mxCell>
        <mxCell id="e2St2DHysB3YV1EGZhMh-18" style="edgeStyle=none;rounded=0;orthogonalLoop=1;jettySize=auto;html=1;exitX=1;exitY=0.75;exitDx=0;exitDy=0;" edge="1" parent="WIyWlLk6GJQsqaUBKTNV-1" source="e2St2DHysB3YV1EGZhMh-6" target="e2St2DHysB3YV1EGZhMh-3">
          <mxGeometry relative="1" as="geometry" />
        </mxCell>
        <mxCell id="e2St2DHysB3YV1EGZhMh-6" value="&lt;p style=&quot;margin:0px;margin-top:4px;text-align:center;&quot;&gt;&lt;b&gt;Запись&lt;/b&gt;&lt;/p&gt;&lt;hr size=&quot;1&quot;&gt;&lt;div style=&quot;height:2px;&quot;&gt;&lt;/div&gt;" style="verticalAlign=top;align=left;overflow=fill;fontSize=12;fontFamily=Helvetica;html=1;whiteSpace=wrap;" vertex="1" parent="WIyWlLk6GJQsqaUBKTNV-1">
          <mxGeometry x="-160" y="290" width="140" height="60" as="geometry" />
        </mxCell>
        <mxCell id="e2St2DHysB3YV1EGZhMh-11" style="edgeStyle=none;rounded=0;orthogonalLoop=1;jettySize=auto;html=1;exitX=0;exitY=0.25;exitDx=0;exitDy=0;entryX=1;entryY=0.25;entryDx=0;entryDy=0;" edge="1" parent="WIyWlLk6GJQsqaUBKTNV-1" source="e2St2DHysB3YV1EGZhMh-7" target="e2St2DHysB3YV1EGZhMh-0">
          <mxGeometry relative="1" as="geometry" />
        </mxCell>
        <mxCell id="e2St2DHysB3YV1EGZhMh-12" style="edgeStyle=none;rounded=0;orthogonalLoop=1;jettySize=auto;html=1;exitX=1;exitY=0.25;exitDx=0;exitDy=0;entryX=0;entryY=0.25;entryDx=0;entryDy=0;" edge="1" parent="WIyWlLk6GJQsqaUBKTNV-1" source="e2St2DHysB3YV1EGZhMh-7" target="e2St2DHysB3YV1EGZhMh-2">
          <mxGeometry relative="1" as="geometry" />
        </mxCell>
        <mxCell id="e2St2DHysB3YV1EGZhMh-7" value="&lt;p style=&quot;margin:0px;margin-top:4px;text-align:center;&quot;&gt;&lt;b&gt;Специализация&lt;br&gt;Докора&lt;/b&gt;&lt;/p&gt;&lt;hr size=&quot;1&quot;&gt;&lt;div style=&quot;height:2px;&quot;&gt;&lt;/div&gt;" style="verticalAlign=top;align=left;overflow=fill;fontSize=12;fontFamily=Helvetica;html=1;whiteSpace=wrap;" vertex="1" parent="WIyWlLk6GJQsqaUBKTNV-1">
          <mxGeometry x="360" y="290" width="140" height="60" as="geometry" />
        </mxCell>
        <mxCell id="e2St2DHysB3YV1EGZhMh-13" style="edgeStyle=none;rounded=0;orthogonalLoop=1;jettySize=auto;html=1;exitX=0.5;exitY=1;exitDx=0;exitDy=0;entryX=0.75;entryY=0;entryDx=0;entryDy=0;" edge="1" parent="WIyWlLk6GJQsqaUBKTNV-1" source="e2St2DHysB3YV1EGZhMh-8" target="e2St2DHysB3YV1EGZhMh-3">
          <mxGeometry relative="1" as="geometry" />
        </mxCell>
        <mxCell id="e2St2DHysB3YV1EGZhMh-14" style="edgeStyle=none;rounded=0;orthogonalLoop=1;jettySize=auto;html=1;exitX=0;exitY=0.25;exitDx=0;exitDy=0;entryX=1;entryY=0.5;entryDx=0;entryDy=0;" edge="1" parent="WIyWlLk6GJQsqaUBKTNV-1" source="e2St2DHysB3YV1EGZhMh-8" target="e2St2DHysB3YV1EGZhMh-0">
          <mxGeometry relative="1" as="geometry" />
        </mxCell>
        <mxCell id="e2St2DHysB3YV1EGZhMh-8" value="&lt;p style=&quot;margin:0px;margin-top:4px;text-align:center;&quot;&gt;&lt;b&gt;Сотрудник&lt;br&gt;Клиники&lt;/b&gt;&lt;/p&gt;&lt;hr size=&quot;1&quot;&gt;&lt;div style=&quot;height:2px;&quot;&gt;&lt;/div&gt;" style="verticalAlign=top;align=left;overflow=fill;fontSize=12;fontFamily=Helvetica;html=1;whiteSpace=wrap;" vertex="1" parent="WIyWlLk6GJQsqaUBKTNV-1">
          <mxGeometry x="360" y="370" width="140" height="60" as="geometry" />
        </mxCell>
        <mxCell id="e2St2DHysB3YV1EGZhMh-10" value="&lt;p style=&quot;margin:0px;margin-top:4px;text-align:center;&quot;&gt;&lt;b&gt;Услуга&lt;/b&gt;&lt;/p&gt;&lt;hr size=&quot;1&quot;&gt;&lt;div style=&quot;height:2px;&quot;&gt;&lt;/div&gt;" style="verticalAlign=top;align=left;overflow=fill;fontSize=12;fontFamily=Helvetica;html=1;whiteSpace=wrap;" vertex="1" parent="WIyWlLk6GJQsqaUBKTNV-1">
          <mxGeometry x="-40" y="480" width="140" height="60" as="geometry" />
        </mxCell>
        <mxCell id="e2St2DHysB3YV1EGZhMh-23" style="edgeStyle=none;rounded=0;orthogonalLoop=1;jettySize=auto;html=1;exitX=0.5;exitY=1;exitDx=0;exitDy=0;entryX=0.75;entryY=0;entryDx=0;entryDy=0;" edge="1" parent="WIyWlLk6GJQsqaUBKTNV-1" source="e2St2DHysB3YV1EGZhMh-21" target="e2St2DHysB3YV1EGZhMh-6">
          <mxGeometry relative="1" as="geometry" />
        </mxCell>
        <mxCell id="e2St2DHysB3YV1EGZhMh-21" value="&lt;p style=&quot;margin:0px;margin-top:4px;text-align:center;&quot;&gt;&lt;b&gt;СервисЗаписи&lt;/b&gt;&lt;/p&gt;&lt;hr size=&quot;1&quot;&gt;&lt;div style=&quot;height:2px;&quot;&gt;&lt;/div&gt;" style="verticalAlign=top;align=left;overflow=fill;fontSize=12;fontFamily=Helvetica;html=1;whiteSpace=wrap;" vertex="1" parent="WIyWlLk6GJQsqaUBKTNV-1">
          <mxGeometry x="-150" y="120" width="140" height="60" as="geometry" />
        </mxCell>
        <mxCell id="e2St2DHysB3YV1EGZhMh-34" style="edgeStyle=none;rounded=0;orthogonalLoop=1;jettySize=auto;html=1;exitX=1;exitY=0.5;exitDx=0;exitDy=0;entryX=0;entryY=0.5;entryDx=0;entryDy=0;" edge="1" parent="WIyWlLk6GJQsqaUBKTNV-1" source="e2St2DHysB3YV1EGZhMh-30" target="e2St2DHysB3YV1EGZhMh-21">
          <mxGeometry relative="1" as="geometry" />
        </mxCell>
        <mxCell id="e2St2DHysB3YV1EGZhMh-30" value="&lt;p style=&quot;margin:0px;margin-top:4px;text-align:center;&quot;&gt;&lt;b&gt;СервисУведомлений&lt;/b&gt;&lt;/p&gt;&lt;hr size=&quot;1&quot;&gt;&lt;div style=&quot;height:2px;&quot;&gt;&lt;/div&gt;" style="verticalAlign=top;align=left;overflow=fill;fontSize=12;fontFamily=Helvetica;html=1;whiteSpace=wrap;" vertex="1" parent="WIyWlLk6GJQsqaUBKTNV-1">
          <mxGeometry x="-360" y="120" width="140" height="60" as="geometry" />
        </mxCell>
        <mxCell id="e2St2DHysB3YV1EGZhMh-36" style="edgeStyle=none;rounded=0;orthogonalLoop=1;jettySize=auto;html=1;exitX=0.5;exitY=1;exitDx=0;exitDy=0;entryX=0.25;entryY=0;entryDx=0;entryDy=0;" edge="1" parent="WIyWlLk6GJQsqaUBKTNV-1" source="e2St2DHysB3YV1EGZhMh-35" target="e2St2DHysB3YV1EGZhMh-8">
          <mxGeometry relative="1" as="geometry" />
        </mxCell>
        <mxCell id="e2St2DHysB3YV1EGZhMh-35" value="&lt;p style=&quot;margin:0px;margin-top:4px;text-align:center;&quot;&gt;&lt;b&gt;СервисУправления&lt;br&gt;Сотрудниками&lt;/b&gt;&lt;/p&gt;&lt;hr size=&quot;1&quot;&gt;&lt;div style=&quot;height:2px;&quot;&gt;&lt;/div&gt;" style="verticalAlign=top;align=left;overflow=fill;fontSize=12;fontFamily=Helvetica;html=1;whiteSpace=wrap;" vertex="1" parent="WIyWlLk6GJQsqaUBKTNV-1">
          <mxGeometry x="560" y="120" width="140" height="60" as="geometry" />
        </mxCell>
        <mxCell id="e2St2DHysB3YV1EGZhMh-44" style="edgeStyle=none;rounded=0;orthogonalLoop=1;jettySize=auto;html=1;exitX=0.25;exitY=1;exitDx=0;exitDy=0;entryX=0.25;entryY=0;entryDx=0;entryDy=0;" edge="1" parent="WIyWlLk6GJQsqaUBKTNV-1" source="e2St2DHysB3YV1EGZhMh-38" target="e2St2DHysB3YV1EGZhMh-30">
          <mxGeometry relative="1" as="geometry" />
        </mxCell>
        <mxCell id="e2St2DHysB3YV1EGZhMh-38" value="&lt;p style=&quot;margin:0px;margin-top:4px;text-align:center;&quot;&gt;&lt;b&gt;ОтображениеУведомления&lt;/b&gt;&lt;/p&gt;&lt;hr size=&quot;1&quot;&gt;&lt;div style=&quot;height:2px;&quot;&gt;&lt;/div&gt;" style="verticalAlign=top;align=left;overflow=fill;fontSize=12;fontFamily=Helvetica;html=1;whiteSpace=wrap;" vertex="1" parent="WIyWlLk6GJQsqaUBKTNV-1">
          <mxGeometry x="-370" y="-50" width="170" height="60" as="geometry" />
        </mxCell>
        <mxCell id="e2St2DHysB3YV1EGZhMh-45" style="edgeStyle=none;rounded=0;orthogonalLoop=1;jettySize=auto;html=1;exitX=0.25;exitY=1;exitDx=0;exitDy=0;entryX=0.25;entryY=0;entryDx=0;entryDy=0;" edge="1" parent="WIyWlLk6GJQsqaUBKTNV-1" source="e2St2DHysB3YV1EGZhMh-39" target="e2St2DHysB3YV1EGZhMh-21">
          <mxGeometry relative="1" as="geometry">
            <mxPoint x="-270" y="-60" as="targetPoint" />
          </mxGeometry>
        </mxCell>
        <mxCell id="e2St2DHysB3YV1EGZhMh-56" style="edgeStyle=none;rounded=0;orthogonalLoop=1;jettySize=auto;html=1;exitX=1;exitY=0.5;exitDx=0;exitDy=0;entryX=0;entryY=0.5;entryDx=0;entryDy=0;" edge="1" parent="WIyWlLk6GJQsqaUBKTNV-1" source="e2St2DHysB3YV1EGZhMh-39" target="e2St2DHysB3YV1EGZhMh-40">
          <mxGeometry relative="1" as="geometry" />
        </mxCell>
        <mxCell id="e2St2DHysB3YV1EGZhMh-39" value="&lt;p style=&quot;margin:0px;margin-top:4px;text-align:center;&quot;&gt;&lt;b&gt;ОтображениеПросмотра&lt;br&gt;Записи&lt;/b&gt;&lt;/p&gt;&lt;hr size=&quot;1&quot;&gt;&lt;div style=&quot;height:2px;&quot;&gt;&lt;/div&gt;" style="verticalAlign=top;align=left;overflow=fill;fontSize=12;fontFamily=Helvetica;html=1;whiteSpace=wrap;" vertex="1" parent="WIyWlLk6GJQsqaUBKTNV-1">
          <mxGeometry x="-275" y="-250" width="170" height="60" as="geometry" />
        </mxCell>
        <mxCell id="e2St2DHysB3YV1EGZhMh-40" value="&lt;p style=&quot;margin:0px;margin-top:4px;text-align:center;&quot;&gt;&lt;b&gt;ОтображениеРедактирования&lt;br&gt;Записи&lt;/b&gt;&lt;/p&gt;&lt;hr size=&quot;1&quot;&gt;&lt;div style=&quot;height:2px;&quot;&gt;&lt;/div&gt;" style="verticalAlign=top;align=left;overflow=fill;fontSize=12;fontFamily=Helvetica;html=1;whiteSpace=wrap;" vertex="1" parent="WIyWlLk6GJQsqaUBKTNV-1">
          <mxGeometry x="5" y="-250" width="200" height="60" as="geometry" />
        </mxCell>
        <mxCell id="e2St2DHysB3YV1EGZhMh-46" style="edgeStyle=none;rounded=0;orthogonalLoop=1;jettySize=auto;html=1;exitX=0.25;exitY=1;exitDx=0;exitDy=0;entryX=0.5;entryY=0;entryDx=0;entryDy=0;" edge="1" parent="WIyWlLk6GJQsqaUBKTNV-1" source="e2St2DHysB3YV1EGZhMh-41" target="e2St2DHysB3YV1EGZhMh-21">
          <mxGeometry relative="1" as="geometry" />
        </mxCell>
        <mxCell id="e2St2DHysB3YV1EGZhMh-41" value="&lt;p style=&quot;margin:0px;margin-top:4px;text-align:center;&quot;&gt;&lt;b&gt;ОтображениеРасписания&lt;/b&gt;&lt;/p&gt;&lt;hr size=&quot;1&quot;&gt;&lt;div style=&quot;height:2px;&quot;&gt;&lt;/div&gt;" style="verticalAlign=top;align=left;overflow=fill;fontSize=12;fontFamily=Helvetica;html=1;whiteSpace=wrap;" vertex="1" parent="WIyWlLk6GJQsqaUBKTNV-1">
          <mxGeometry x="-190" y="-150" width="200" height="60" as="geometry" />
        </mxCell>
        <mxCell id="e2St2DHysB3YV1EGZhMh-48" style="edgeStyle=none;rounded=0;orthogonalLoop=1;jettySize=auto;html=1;exitX=1;exitY=0.5;exitDx=0;exitDy=0;entryX=0.5;entryY=0;entryDx=0;entryDy=0;" edge="1" parent="WIyWlLk6GJQsqaUBKTNV-1" source="e2St2DHysB3YV1EGZhMh-42" target="e2St2DHysB3YV1EGZhMh-35">
          <mxGeometry relative="1" as="geometry" />
        </mxCell>
        <mxCell id="e2St2DHysB3YV1EGZhMh-42" value="&lt;p style=&quot;margin:0px;margin-top:4px;text-align:center;&quot;&gt;&lt;b&gt;ОтображениеВыбрать&lt;br&gt;Доктора&lt;/b&gt;&lt;/p&gt;&lt;hr size=&quot;1&quot;&gt;&lt;div style=&quot;height:2px;&quot;&gt;&lt;/div&gt;" style="verticalAlign=top;align=left;overflow=fill;fontSize=12;fontFamily=Helvetica;html=1;whiteSpace=wrap;" vertex="1" parent="WIyWlLk6GJQsqaUBKTNV-1">
          <mxGeometry x="565" y="-170" width="200" height="60" as="geometry" />
        </mxCell>
        <mxCell id="e2St2DHysB3YV1EGZhMh-53" style="edgeStyle=none;rounded=0;orthogonalLoop=1;jettySize=auto;html=1;exitX=0;exitY=0.75;exitDx=0;exitDy=0;entryX=0.75;entryY=0;entryDx=0;entryDy=0;" edge="1" parent="WIyWlLk6GJQsqaUBKTNV-1" source="e2St2DHysB3YV1EGZhMh-43" target="e2St2DHysB3YV1EGZhMh-21">
          <mxGeometry relative="1" as="geometry" />
        </mxCell>
        <mxCell id="e2St2DHysB3YV1EGZhMh-43" value="&lt;p style=&quot;margin:0px;margin-top:4px;text-align:center;&quot;&gt;&lt;b&gt;ОтображениеВыбрать&lt;br&gt;Время&lt;/b&gt;&lt;/p&gt;&lt;hr size=&quot;1&quot;&gt;&lt;div style=&quot;height:2px;&quot;&gt;&lt;/div&gt;" style="verticalAlign=top;align=left;overflow=fill;fontSize=12;fontFamily=Helvetica;html=1;whiteSpace=wrap;" vertex="1" parent="WIyWlLk6GJQsqaUBKTNV-1">
          <mxGeometry x="485" y="-90" width="200" height="60" as="geometry" />
        </mxCell>
        <mxCell id="e2St2DHysB3YV1EGZhMh-50" style="edgeStyle=none;rounded=0;orthogonalLoop=1;jettySize=auto;html=1;entryX=0;entryY=0.25;entryDx=0;entryDy=0;exitX=0.75;exitY=1;exitDx=0;exitDy=0;" edge="1" parent="WIyWlLk6GJQsqaUBKTNV-1" source="e2St2DHysB3YV1EGZhMh-49" target="e2St2DHysB3YV1EGZhMh-42">
          <mxGeometry relative="1" as="geometry">
            <mxPoint x="305" y="-210" as="sourcePoint" />
            <Array as="points" />
          </mxGeometry>
        </mxCell>
        <mxCell id="e2St2DHysB3YV1EGZhMh-51" style="edgeStyle=none;rounded=0;orthogonalLoop=1;jettySize=auto;html=1;exitX=0.25;exitY=1;exitDx=0;exitDy=0;entryX=0;entryY=0.5;entryDx=0;entryDy=0;" edge="1" parent="WIyWlLk6GJQsqaUBKTNV-1" source="e2St2DHysB3YV1EGZhMh-49" target="e2St2DHysB3YV1EGZhMh-43">
          <mxGeometry relative="1" as="geometry">
            <Array as="points" />
          </mxGeometry>
        </mxCell>
        <mxCell id="e2St2DHysB3YV1EGZhMh-54" style="edgeStyle=none;rounded=0;orthogonalLoop=1;jettySize=auto;html=1;exitX=0.25;exitY=1;exitDx=0;exitDy=0;entryX=0.75;entryY=0;entryDx=0;entryDy=0;" edge="1" parent="WIyWlLk6GJQsqaUBKTNV-1" source="e2St2DHysB3YV1EGZhMh-40" target="e2St2DHysB3YV1EGZhMh-21">
          <mxGeometry relative="1" as="geometry" />
        </mxCell>
        <mxCell id="e2St2DHysB3YV1EGZhMh-58" style="edgeStyle=none;rounded=0;orthogonalLoop=1;jettySize=auto;html=1;exitX=0.75;exitY=0;exitDx=0;exitDy=0;entryX=1;entryY=0.5;entryDx=0;entryDy=0;" edge="1" parent="WIyWlLk6GJQsqaUBKTNV-1" source="e2St2DHysB3YV1EGZhMh-49" target="e2St2DHysB3YV1EGZhMh-40">
          <mxGeometry relative="1" as="geometry" />
        </mxCell>
        <mxCell id="e2St2DHysB3YV1EGZhMh-49" value="&lt;p style=&quot;margin:0px;margin-top:4px;text-align:center;&quot;&gt;&lt;b&gt;ОтображениеЗаписаться&lt;br&gt;НаПрием&lt;/b&gt;&lt;/p&gt;&lt;hr size=&quot;1&quot;&gt;&lt;div style=&quot;height:2px;&quot;&gt;&lt;/div&gt;" style="verticalAlign=top;align=left;overflow=fill;fontSize=12;fontFamily=Helvetica;html=1;whiteSpace=wrap;" vertex="1" parent="WIyWlLk6GJQsqaUBKTNV-1">
          <mxGeometry x="325" y="-260" width="200" height="60" as="geometry" />
        </mxCell>
      </root>
    </mxGraphModel>
  </diagram>
</mxfile>
